<?xml version="1.0" standalone="no"?>
<!DOCTYPE svg PUBLIC "-//W3C//DTD SVG 1.1//EN" "http://www.w3.org/Graphics/SVG/1.1/DTD/svg11.dtd" >
<svg xmlns="http://www.w3.org/2000/svg" xmlns:xlink="http://www.w3.org/1999/xlink" version="1.1">
<metadata></metadata>
<defs>
<font id="noto_serif_scbold" horiz-adv-x="1000" vert-adv-y="1000" >
<font-face units-per-em="1000" ascent="800" descent="-200" />
<missing-glyph horiz-adv-x="500" />
<glyph unicode="&#x2000;" horiz-adv-x="420" vert-adv-y="0" />
<glyph unicode="&#x2001;" horiz-adv-x="841" vert-adv-y="0" />
<glyph unicode="&#x2002;" horiz-adv-x="420" vert-adv-y="0" />
<glyph unicode="&#x2003;" horiz-adv-x="841" vert-adv-y="0" />
<glyph unicode="&#x2004;" horiz-adv-x="280" vert-adv-y="0" />
<glyph unicode="&#x2005;" horiz-adv-x="210" vert-adv-y="0" />
<glyph unicode="&#x2006;" horiz-adv-x="140" vert-adv-y="0" />
<glyph unicode="&#x2007;" horiz-adv-x="140" vert-adv-y="0" />
<glyph unicode="&#x2008;" horiz-adv-x="105" vert-adv-y="0" />
<glyph unicode="&#x2009;" horiz-adv-x="168" vert-adv-y="0" />
<glyph unicode="&#x200a;" horiz-adv-x="46" vert-adv-y="0" />
<glyph unicode="&#x202f;" horiz-adv-x="168" vert-adv-y="0" />
<glyph unicode="&#x205f;" horiz-adv-x="210" vert-adv-y="0" />
<glyph unicode="&#xff21;" d="M97 0v37l102 9l252 704h99l264 -706l97 -7v-37h-349v37l100 8l-70 193h-279l-65 -191l106 -10v-37h-257zM327 280h250l-128 356z" />
<glyph unicode="&#xff22;" d="M172 0v37l101 7q1 102 1 308v43q0 208 -1 311l-101 7v37h383q263 0 263 -174q0 -67 -43.5 -111.5t-152.5 -63.5q129 -12 184.5 -61.5t55.5 -132.5q0 -41 -16 -75.5t-51.5 -65.5t-103.5 -48.5t-163 -17.5h-356zM418 372q0 -225 2 -333h109q87 0 136.5 47t49.5 123 q0 83 -47 123t-146 40h-104zM418 413h94q81 0 124.5 41t43.5 113q0 64 -39 104t-125 40h-96q-2 -98 -2 -298z" />
<glyph unicode="&#xff23;" d="M153 375q0 185 117.5 289t311.5 104q126 0 234 -60l-1 -186h-59l-46 182q-52 24 -122 24q-128 0 -205 -92t-77 -261t78 -260.5t205 -91.5q72 0 132 28l46 178h59l1 -178q-115 -69 -246 -69q-121 0 -216 42.5t-153.5 133t-58.5 217.5z" />
<glyph unicode="&#xff24;" d="M152 0v37l101 7q2 101 2 308v47q0 205 -2 307l-101 7v37h334q177 0 279.5 -98.5t102.5 -274.5q0 -175 -105.5 -276t-285.5 -101h-325zM399 352q0 -210 1 -313h53q262 0 262 336t-256 336h-59q-1 -102 -1 -312v-47z" />
<glyph unicode="&#xff25;" d="M189 0v37l96 7q3 101 3 308v47q0 205 -3 307l-96 7v37h613l6 -191h-67l-37 152h-270q-2 -99 -2 -306h215l19 99h49v-238h-49l-18 98h-216q0 -222 2 -325h294l37 152h66l-9 -191h-633z" />
<glyph unicode="&#xff26;" d="M196 0v37l96 7q3 101 3 308v47q0 205 -3 307l-96 7v37h619l9 -191h-69l-37 152h-277q-2 -98 -2 -306h212l19 99h49v-245h-49l-19 105h-212q0 -219 2 -319l107 -8v-37h-352z" />
<glyph unicode="&#xff27;" d="M148 376q0 180 110.5 286t300.5 106q141 0 241 -57l-2 -178h-59l-44 173q-52 22 -119 22q-121 0 -197.5 -94t-76.5 -258q0 -165 75 -259t194 -94q59 0 107 17v64q0 115 -3 229l-114 9v36h341v-36l-81 -8q-2 -144 -2 -235v-51q-111 -66 -271 -66q-181 0 -290.5 105.5 t-109.5 288.5z" />
<glyph unicode="&#xff28;" d="M81 0v37l101 7q1 101 1 308v47q0 205 -1 307l-101 7v37h349v-37l-100 -7q-3 -97 -3 -298h346q0 199 -2 298l-101 7v37h349v-37l-101 -7q-1 -100 -1 -307v-47q0 -206 1 -308l101 -7v-37h-349v37l101 7q2 101 2 321h-346q0 -220 3 -321l100 -7v-37h-349z" />
<glyph unicode="&#xff29;" d="M330 0v37l96 7q2 101 2 308v47q0 205 -2 307l-96 7v37h340v-37l-96 -7q-2 -100 -2 -307v-47q0 -206 2 -308l96 -7v-37h-340z" />
<glyph unicode="&#xff2a;" d="M162 155q7 21 23 32t34 11q29 0 46 -16.5t25 -58.5l23 -92q24 -8 59 -8q88 0 136 55t48 153q0 153 -3 474l-134 8v37h393v-37l-111 -8q-1 -97 -1 -300v-86q0 -77 -13 -141q-15 -85 -87 -140.5t-199 -55.5q-219 0 -239 173z" />
<glyph unicode="&#xff2b;" d="M127 0v37l101 7q2 101 2 308v47q0 205 -2 307l-101 7v37h335v-37l-87 -7q-2 -100 -2 -307v-67l340 372l-101 9v37h265v-37l-108 -10l-198 -213l261 -447l88 -6v-37h-337v37l86 6l-191 347l-105 -113q0 -146 2 -233l87 -7v-37h-335z" />
<glyph unicode="&#xff2c;" d="M186 0v37l101 7q3 101 3 308v47q0 205 -3 307l-101 7v37h361v-37l-111 -7q-3 -101 -3 -307v-47q0 -210 3 -313h304l49 182h58l-11 -221h-650z" />
<glyph unicode="&#xff2d;" d="M18 0v37l121 10l4 658l-108 8v37h246l230 -557l223 557h237v-37l-102 -7q-2 -100 -2 -307v-47q0 -206 2 -308l104 -7v-37h-355v37l101 7q4 202 4 308v253l-243 -605h-45l-248 610l-2 -563l117 -10v-37h-284z" />
<glyph unicode="&#xff2e;" d="M85 0v37l113 10v630l-22 28l-91 8v37h246l431 -559l-3 513l-146 9v37h307v-37l-114 -9v-708h-81l-483 623l3 -571l147 -11v-37h-307z" />
<glyph unicode="&#xff2f;" d="M120 375q0 183 107.5 288t272.5 105q166 0 273 -104.5t107 -288.5t-107 -288.5t-273 -104.5q-167 0 -273.5 104.5t-106.5 288.5zM272 375q0 -161 58.5 -256.5t169.5 -95.5t169.5 95.5t58.5 256.5q0 160 -58.5 256t-169.5 96t-169.5 -96t-58.5 -256z" />
<glyph unicode="&#xff30;" d="M183 0v37l101 7q2 67 2 308v47q0 238 -2 306l-101 8v37h349q319 0 319 -223q0 -239 -332 -239h-89q0 -154 3 -243l117 -8v-37h-367zM430 329h88q97 0 145 51.5t48 148.5q0 182 -177 182h-101q-3 -102 -3 -312v-70z" />
<glyph unicode="&#xff31;" d="M120 375q0 183 107.5 288t272.5 105q166 0 273 -104.5t107 -288.5q0 -162 -84 -263t-221 -124q6 -80 50 -119t109 -39q61 0 118 28l14 -34q-82 -47 -182 -47q-122 0 -192 58t-63 152q-139 22 -224 123.5t-85 264.5zM272 375q0 -161 58.5 -256.5t169.5 -95.5t169.5 95.5 t58.5 256.5q0 160 -58.5 256t-169.5 96t-169.5 -96t-58.5 -256z" />
<glyph unicode="&#xff32;" d="M153 0v37l100 7q2 101 2 308v47q0 205 -2 307l-100 7v37h381q130 0 199.5 -49t69.5 -141q0 -68 -51.5 -118.5t-157.5 -67.5q83 -12 117.5 -49t52.5 -113l48 -168l109 -7v-37q-71 -15 -120 -15q-68 0 -102 22.5t-45 78.5l-44 145q-17 63 -41.5 91.5t-77.5 28.5h-92 q0 -207 2 -307l111 -7v-37h-359zM399 392h99q80 0 121 45t41 113q0 76 -43 118.5t-123 42.5h-93q-2 -100 -2 -319z" />
<glyph unicode="&#xff33;" d="M220 49l12 166h68l32 -165q65 -26 147 -26q88 0 139 37t51 99q0 50 -32 83t-102 55l-94 29q-203 62 -203 217q0 108 82.5 166t211.5 58q126 0 222 -56l-7 -159h-66l-35 151q-49 23 -109 23q-79 0 -129.5 -34.5t-50.5 -97.5q0 -51 32.5 -83.5t98.5 -53.5l100 -31 q111 -34 158 -88t47 -128q0 -108 -81.5 -168.5t-232.5 -60.5q-143 0 -259 67z" />
<glyph unicode="&#xff34;" d="M149 541l5 209h692l5 -209h-66l-31 170h-180q-2 -102 -2 -312v-47q0 -206 2 -307l121 -8v-37h-390v37l121 8q2 100 2 307v47q0 209 -2 312h-179l-31 -170h-67z" />
<glyph unicode="&#xff35;" d="M95 713v37h352v-37l-104 -7q-2 -99 -2 -300v-101q0 -135 51.5 -193t153.5 -58q108 0 159.5 62t51.5 201v387l-101 9v37h246v-37l-98 -9v-384q0 -173 -77.5 -256t-218.5 -83q-150 0 -230.5 76.5t-80.5 253.5v95q0 200 -2 300z" />
<glyph unicode="&#xff36;" d="M109 713v37h358v-37l-112 -7l212 -581l215 578l-115 10v37h264v-37l-103 -9l-267 -708h-93l-270 711z" />
<glyph unicode="&#xff37;" d="M2 713v37h310v-37l-90 -7l130 -544l142 543l-99 8v37h313v-37l-96 -8l144 -545l125 543l-92 10v37h224v-37l-85 -10l-174 -707h-91l-160 577l-156 -577h-87l-194 712z" />
<glyph unicode="&#xff38;" d="M107 0v37l108 9l232 301l-238 359l-83 7v37h327v-37l-93 -7l172 -260l185 258l-105 9v37h261v-37l-96 -9l-222 -292l244 -368l94 -7v-37h-336v37l91 7l-178 268l-196 -267l105 -8v-37h-272z" />
<glyph unicode="&#xff39;" d="M126 713v37h366v-37l-113 -7l182 -344l182 341l-109 10v37h264v-37l-104 -9l-219 -400v-28q0 -150 2 -231l124 -8v-37h-396v37l124 8q2 80 2 230v25l-223 407z" />
<glyph unicode="&#xff3a;" d="M182 0v34l474 677h-357l-43 -170h-61l10 209h610v-34l-474 -677h378l45 170h61l-10 -209h-633z" />
<glyph unicode="&#xff41;" d="M226 124q0 67 56 115t195 78q2 1 130 29v41q0 80 -28.5 109.5t-103.5 29.5q-40 0 -80 -10l-13 -60q-14 -87 -77 -87q-50 0 -62 45q11 68 81.5 108t188.5 40q125 0 181 -47.5t56 -155.5v-257q0 -31 8 -43t26 -12q19 0 42 26l21 -16q-36 -75 -121 -75q-99 0 -116 89 q-94 -89 -215 -89q-79 0 -124 37.5t-45 104.5zM358 151q0 -46 29 -71.5t78 -25.5q73 0 142 50v215q-85 -24 -101 -28q-76 -22 -112 -54.5t-36 -85.5z" />
<glyph unicode="&#xff42;" d="M158 0v33l94 7q2 116 2 198v507l-94 8v29l224 36l16 -10l-4 -160v-177q76 91 188 91q106 0 176 -76.5t70 -210.5q0 -136 -74 -214.5t-183 -78.5q-110 0 -177 85l-14 -76zM398 98q53 -50 124 -50q70 0 113 59t43 162q0 111 -41.5 169t-110.5 58t-128 -56v-342z" />
<glyph unicode="&#xff43;" d="M221 272q0 133 89 211.5t236 78.5q91 0 154 -42t77 -109q-16 -49 -62 -49q-63 0 -72 87l-12 72q-28 7 -65 7q-84 0 -138 -62t-54 -175q0 -106 59.5 -170t147.5 -64q102 0 174 73l22 -18q-85 -130 -252 -130q-137 0 -220.5 79t-83.5 211z" />
<glyph unicode="&#xff44;" d="M178 269q0 136 74.5 214.5t183.5 78.5t177 -86v269l-94 8v29l224 36l15 -10l-4 -158v-611l95 -6v-33l-230 -9l-7 82q-72 -91 -190 -91q-105 0 -174.5 75.5t-69.5 211.5zM330 275q0 -111 41.5 -169t110.5 -58t129 57v339q-55 52 -123 52q-71 0 -114.5 -59t-43.5 -162z" />
<glyph unicode="&#xff45;" d="M219 274q0 133 90.5 210.5t218.5 77.5q123 0 190 -66t67 -167q0 -30 -6 -57h-407q4 -101 65 -158t142 -57q102 0 167 67l23 -17q-36 -60 -100.5 -92.5t-144.5 -32.5q-133 0 -219 77.5t-86 214.5zM372 310h226q30 0 40.5 15t10.5 56q0 69 -34 107.5t-91 38.5 q-67 0 -107.5 -54.5t-44.5 -162.5z" />
<glyph unicode="&#xff46;" d="M285 499v35l112 10q17 171 121 245q72 52 191 52q112 0 130 -66q0 -29 -17 -46t-46 -17q-51 0 -96 66l-22 30q-36 -16 -63 -44q-30 -33 -43 -82t-14 -139h177v-47l-177 2v-260q0 -67 2 -197l122 -8v-33h-358v33l89 7q2 134 2 198v261h-110z" />
<glyph unicode="&#xff47;" d="M220 -107q0 73 90 112q-59 32 -59 100q0 70 86 126q-83 49 -83 149q0 81 60.5 131.5t173.5 50.5t175 -52l137 51l17 -12v-79l-129 14q34 -43 34 -104q0 -82 -60.5 -133t-173.5 -51q-75 0 -127 23q-25 -31 -25 -57q0 -58 97 -58h164q222 0 222 -144q0 -87 -87 -144.5 t-245 -57.5q-138 0 -202.5 38t-64.5 97zM302 -82q0 -115 201 -115q102 0 154.5 30.5t52.5 83.5q0 61 -91 61h-181q-62 0 -102 15q-34 -37 -34 -75zM384 380q0 -70 27 -110.5t77 -40.5q48 0 76 41t28 110t-28 109t-76 40q-49 0 -76.5 -39.5t-27.5 -109.5z" />
<glyph unicode="&#xff48;" d="M146 753v29l223 36l16 -10l-4 -160v-197q57 63 108.5 87t113.5 24q80 0 127 -48t47 -146v-130q0 -84 2 -198l81 -7v-33h-306v33l78 7q2 116 2 198v122q0 68 -23 96t-76 28q-75 0 -152 -64v-182q0 -140 1 -199l79 -6v-33h-306v33l80 7q2 116 2 198v507z" />
<glyph unicode="&#xff49;" d="M373 0v33l100 8q2 116 2 197v73q0 84 -3 165l-90 6v26l227 51l13 -8l-3 -157v-156q0 -81 2 -197l101 -8v-33h-349zM458 759q0 34 25 57.5t61 23.5q37 0 62 -23.5t25 -57.5q0 -36 -25 -59.5t-62 -23.5q-36 0 -61 23.5t-25 59.5z" />
<glyph unicode="&#xff4a;" d="M176 -112q17 54 71 54q58 0 69 -104l8 -65q16 -3 32 -3q84 0 131 87q28 53 28 218v236q0 101 -4 165l-90 6v26l228 51l12 -8l-3 -157v-278q0 -122 -14 -186t-54 -109q-73 -85 -214 -85q-82 0 -141 46t-59 106zM497 759q0 34 25 57.5t61 23.5q37 0 62 -23.5t25 -57.5 q0 -36 -25 -59.5t-62 -23.5q-36 0 -61 23.5t-25 59.5z" />
<glyph unicode="&#xff4b;" d="M168 753v29l226 36l15 -10l-4 -160v-387l252 241l-105 9v32h274v-32l-115 -9l-146 -136l208 -327l89 -6v-33h-213l-172 284l-72 -67q0 -125 1 -178l79 -6v-33h-312v33l87 7q2 118 2 198v507z" />
<glyph unicode="&#xff4c;" d="M334 753v29l227 36l15 -10l-4 -160v-410q0 -98 3 -199l87 -6v-33h-324v33l87 6q3 101 3 199v507z" />
<glyph unicode="&#xff4d;" d="M20 482v24l201 53l12 -8l5 -96q77 107 177 107q118 0 150 -109q45 60 88 84.5t97 24.5q76 0 119.5 -48t43.5 -145v-131q0 -82 2 -198l74 -7v-33h-293v33l72 7q2 116 2 198v126q0 64 -21 92t-63 28q-55 0 -114 -62q4 -20 4 -49v-135q0 -82 2 -198l71 -7v-33h-289v33l71 7 q2 116 2 198v129q0 63 -21 90t-63 27q-55 0 -110 -57v-189q0 -83 2 -199l72 -6v-33h-287v33l68 7q2 116 2 198v84q0 80 -3 154z" />
<glyph unicode="&#xff4e;" d="M157 0v33l80 7q2 118 2 198v84q0 80 -3 154l-73 6v24l201 53l13 -8l5 -99q56 62 107.5 86t113.5 24q80 0 127 -48t47 -146v-130q0 -84 2 -198l81 -7v-33h-306v33l78 7q2 116 2 198v122q0 68 -23 96t-76 28q-75 0 -152 -64v-182q0 -81 2 -199l77 -6v-33h-305z" />
<glyph unicode="&#xff4f;" d="M194 274q0 131 87.5 209.5t218.5 78.5t218.5 -78.5t87.5 -209.5q0 -133 -84.5 -212.5t-221.5 -79.5t-221.5 79.5t-84.5 212.5zM347 272q0 -126 40 -190.5t113 -64.5t113 64.5t40 190.5t-40 190.5t-113 64.5t-113 -64.5t-40 -190.5z" />
<glyph unicode="&#xff50;" d="M150 -221l94 7q2 66 2 212v324q0 82 -3 154l-80 6v24l207 53l13 -8l5 -81q75 92 188 92q106 0 176.5 -76.5t70.5 -210.5q0 -136 -74.5 -214.5t-183.5 -78.5q-108 0 -177 84v-68q0 -144 2 -210l115 -9v-33h-355v33zM390 98q53 -50 124 -50q70 0 113 59t43 162 q0 111 -41.5 169t-110.5 58t-128 -56v-342z" />
<glyph unicode="&#xff51;" d="M185 270q0 135 78 213.5t192 78.5q110 0 179 -85l114 81l17 -7l-3 -154v-412q0 -67 2 -199l94 -7v-33h-351v33l111 8q2 132 2 198v88q-75 -91 -191 -91q-104 0 -174 77t-70 211zM338 276q0 -111 41.5 -169.5t110.5 -58.5t128 56v353q-51 39 -116 39q-74 0 -119 -58.5 t-45 -161.5z" />
<glyph unicode="&#xff52;" d="M269 0v33l101 8q2 116 2 197v84q0 95 -4 154l-90 6v25l218 52l12 -8l6 -137q34 68 88 108t105 40q81 0 108 -57q0 -36 -21 -59t-57 -23q-54 0 -91 39l-25 26q-56 -34 -106 -125v-125q0 -109 3 -196l127 -9v-33h-376z" />
<glyph unicode="&#xff53;" d="M249 35l9 146h62l43 -148q51 -17 114 -17q71 0 110 25.5t39 67.5q0 34 -24.5 57.5t-90.5 42.5l-100 29q-152 46 -152 159q0 76 65 120.5t191 44.5q91 0 199 -46l-13 -129h-63l-37 128q-39 13 -92 13q-61 0 -96.5 -23.5t-35.5 -60.5q0 -36 24 -58.5t89 -41.5l104 -27 q82 -24 119.5 -63t37.5 -99q0 -81 -72 -127t-204 -46q-119 0 -226 53z" />
<glyph unicode="&#xff54;" d="M238 499v35l114 10l49 165h93l-2 -166h189v-47l-190 2v-319q0 -72 24.5 -104t75.5 -32q62 0 130 43l16 -23q-72 -81 -190 -81q-106 0 -153.5 48t-46.5 146q0 12 0.5 40t0.5 50v233h-110z" />
<glyph unicode="&#xff55;" d="M146 498v30l211 24l14 -9l-5 -163v-189q0 -67 27 -95t83 -28q79 0 141 59v365l-79 6v29l212 25l14 -9l-3 -163v-341l82 -6v-33l-224 -13l-2 108q-93 -113 -208 -113q-191 0 -188 224l4 286z" />
<glyph unicode="&#xff56;" d="M149 511v32h327v-32l-89 -9l164 -388l169 388l-96 9v32h234v-32l-90 -9l-236 -506h-71l-231 508z" />
<glyph unicode="&#xff57;" d="M18 510v33h315v-33l-86 -6l121 -360l132 358l-98 8v33h288v-33l-86 -7l129 -360l125 358l-96 9v33h221v-33l-81 -8l-183 -506h-67l-151 397l-146 -397h-67l-195 508z" />
<glyph unicode="&#xff58;" d="M165 33l102 8l175 199l-189 262l-75 8v33h318l1 -33l-73 -8l117 -157l123 153l-74 12v33h231l1 -33l-106 -13l-154 -179l208 -280l73 -5v-33h-330v33l78 6l-128 173l-141 -171l82 -8l1 -33h-239z" />
<glyph unicode="&#xff59;" d="M152 511v32h330v-32l-88 -12l167 -402l172 402l-99 12v32h238v-32l-91 -12l-254 -557q-48 -106 -108 -153t-141 -47q-51 0 -84 19t-34 52q17 42 61 42q43 0 83 -30l49 -34q45 20 76.5 56t62.5 101l-254 553z" />
<glyph unicode="&#xff5a;" d="M236 0v33l372 475h-259l-37 -137l-71 4l9 168h520v-33l-365 -475h265l45 149h66l-10 -184h-535z" />
</font>
</defs>
</svg>
