<?xml version="1.0" standalone="no"?>
<!DOCTYPE svg PUBLIC "-//W3C//DTD SVG 1.1//EN" "http://www.w3.org/Graphics/SVG/1.1/DTD/svg11.dtd" >
<svg xmlns="http://www.w3.org/2000/svg" xmlns:xlink="http://www.w3.org/1999/xlink" version="1.1">
<metadata></metadata>
<defs>
<font id="noto_serif_scsemibold" horiz-adv-x="1000" vert-adv-y="1000" >
<font-face units-per-em="1000" ascent="800" descent="-200" />
<missing-glyph horiz-adv-x="500" />
<glyph unicode="&#x2000;" horiz-adv-x="419" vert-adv-y="0" />
<glyph unicode="&#x2001;" horiz-adv-x="839" vert-adv-y="0" />
<glyph unicode="&#x2002;" horiz-adv-x="419" vert-adv-y="0" />
<glyph unicode="&#x2003;" horiz-adv-x="839" vert-adv-y="0" />
<glyph unicode="&#x2004;" horiz-adv-x="279" vert-adv-y="0" />
<glyph unicode="&#x2005;" horiz-adv-x="209" vert-adv-y="0" />
<glyph unicode="&#x2006;" horiz-adv-x="139" vert-adv-y="0" />
<glyph unicode="&#x2007;" horiz-adv-x="139" vert-adv-y="0" />
<glyph unicode="&#x2008;" horiz-adv-x="104" vert-adv-y="0" />
<glyph unicode="&#x2009;" horiz-adv-x="167" vert-adv-y="0" />
<glyph unicode="&#x200a;" horiz-adv-x="46" vert-adv-y="0" />
<glyph unicode="&#x202f;" horiz-adv-x="167" vert-adv-y="0" />
<glyph unicode="&#x205f;" horiz-adv-x="209" vert-adv-y="0" />
<glyph unicode="&#xff21;" d="M96 0v39l104 9l256 701h84l268 -703l102 -7v-39h-331v39l103 8l-74 197h-291l-68 -196l105 -9v-39h-258zM331 285h262l-135 363z" />
<glyph unicode="&#xff22;" d="M177 0v39l105 8q2 99 2 303v47q0 205 -2 305l-105 8v39h373q260 0 260 -174q0 -143 -190 -176q233 -22 233 -194q0 -42 -16 -76.5t-51 -64.5t-99.5 -47t-154.5 -17h-355zM404 372q0 -223 1 -331h129q94 0 145.5 44.5t51.5 121.5q0 165 -206 165h-121zM404 412h110 q87 0 134.5 42t47.5 114q0 140 -178 140h-113q-1 -96 -1 -296z" />
<glyph unicode="&#xff23;" d="M159 375q0 183 115 287.5t305 104.5q124 0 230 -59l2 -176h-56l-34 164q-57 30 -137 30q-136 0 -217 -92t-81 -259q0 -168 81.5 -259.5t216.5 -91.5q78 0 148 32l35 161h55l-2 -168q-106 -67 -241 -67q-185 0 -302.5 103.5t-117.5 289.5z" />
<glyph unicode="&#xff24;" d="M159 0v39l105 7q2 100 2 303v51q0 202 -2 303l-105 7v39h321q178 0 279.5 -98t101.5 -275q0 -174 -104.5 -275t-285.5 -101h-312zM386 350q0 -207 1 -309h62q285 0 285 334q0 333 -277 333h-70q-1 -101 -1 -308v-50z" />
<glyph unicode="&#xff25;" d="M196 0v39l99 7q2 101 2 303v51q0 202 -2 303l-99 7v39h600l8 -185h-62l-27 144h-296q-2 -98 -2 -304h230l16 98h44v-238h-44l-15 98h-231q0 -221 2 -322h316l28 144h61l-10 -184h-618z" />
<glyph unicode="&#xff26;" d="M203 0v39l98 7q3 100 3 303v51q0 202 -3 303l-98 7v39h605l10 -185h-63l-27 144h-302q-3 -97 -3 -304h227l16 98h45v-243h-45l-16 103h-227q0 -216 3 -315l109 -8v-39h-332z" />
<glyph unicode="&#xff27;" d="M155 375q0 180 108 286t291 106q139 0 241 -58l2 -171h-56l-34 160q-60 28 -139 28q-128 0 -206.5 -93.5t-78.5 -257.5q0 -165 77.5 -258.5t202.5 -93.5q73 0 131 24v58q0 109 -3 222l-119 10v38h327v-38l-85 -9q-2 -138 -2 -227v-52q-62 -38 -124 -52.5t-142 -14.5 q-177 0 -284 106t-107 287z" />
<glyph unicode="&#xff28;" d="M85 0v39l105 7q1 100 1 303v51q0 202 -1 303l-105 7v39h334v-39l-106 -8q-2 -96 -2 -292h378q0 196 -2 293l-105 7v39h333v-39l-105 -8q-1 -99 -1 -302v-51q0 -202 1 -302l105 -8v-39h-333v39l105 7q2 99 2 321h-378q0 -221 2 -320l106 -8v-39h-334z" />
<glyph unicode="&#xff29;" d="M340 0v39l98 8q2 99 2 302v51q0 202 -2 302l-98 8v39h321v-39l-99 -8q-2 -99 -2 -302v-50q0 -203 2 -303l99 -8v-39h-321z" />
<glyph unicode="&#xff2a;" d="M180 142q12 38 49 38q24 0 38 -14.5t21 -49.5l24 -80q31 -12 77 -12q91 0 140.5 53.5t49.5 156.5q0 142 -3 467l-140 9v39h380v-39l-116 -8q-1 -98 -1 -298v-96q0 -78 -14 -145q-17 -81 -85.5 -131t-187.5 -50q-207 0 -232 160z" />
<glyph unicode="&#xff2b;" d="M135 0v39l105 7q2 100 2 303v51q0 202 -2 303l-105 7v39h323v-39l-95 -7q-1 -100 -1 -303v-76l349 377l-100 9v39h265v-39l-111 -10l-210 -224l259 -430l96 -7v-39h-320v39l88 6l-200 349l-116 -125q0 -140 1 -223l95 -7v-39h-323z" />
<glyph unicode="&#xff2c;" d="M194 0v39l105 7q2 100 2 303v51q0 202 -2 303l-105 7v39h345v-39l-116 -8q-2 -99 -2 -302v-50q0 -207 2 -309h326l35 168h57l-11 -209h-636z" />
<glyph unicode="&#xff2d;" d="M24 0v39l119 10l3 653l-106 8v39h221l245 -583l238 583h220v-39l-106 -7q-2 -100 -2 -303v-50q0 -203 2 -304l110 -7v-39h-341v39l105 8q4 132 4 302v265l-250 -614h-41l-254 613l-2 -564l115 -10v-39h-280z" />
<glyph unicode="&#xff2e;" d="M91 0v39l114 9v637l-13 17l-101 8v39h220l444 -582l-2 534l-138 9v39h300v-39l-115 -9v-706h-68l-481 630l2 -577l138 -9v-39h-300z" />
<glyph unicode="&#xff2f;" d="M124 374q0 183 105.5 288t270.5 105t270.5 -105t105.5 -288q0 -182 -105.5 -287t-270.5 -105t-270.5 105t-105.5 287zM251 374q0 -158 65 -254t184 -96t184 96t65 254t-65 254.5t-184 96.5t-184 -96.5t-65 -254.5z" />
<glyph unicode="&#xff30;" d="M192 0v39l105 8q2 66 2 302v51q0 235 -2 302l-105 8v39h347q304 0 304 -221q0 -109 -77 -171t-245 -62h-101q0 -159 2 -248l120 -8v-39h-350zM420 336h100q206 0 206 193q0 179 -187 179h-117q-2 -101 -2 -308v-64z" />
<glyph unicode="&#xff31;" d="M124 374q0 183 105.5 288t270.5 105t270.5 -105t105.5 -288q0 -162 -85 -264t-224 -123q7 -77 49 -117t108 -40q67 0 125 29l16 -34q-77 -48 -170 -48q-118 0 -184.5 59t-64.5 149q-144 17 -233 119.5t-89 269.5zM251 374q0 -158 65 -254t184 -96t184 96t65 254 t-65 254.5t-184 96.5t-184 -96.5t-65 -254.5z" />
<glyph unicode="&#xff32;" d="M158 0v39l105 8q1 50 1 302v51q0 252 -1 302l-105 8v39h372q127 0 195.5 -49t68.5 -142q0 -69 -50.5 -120.5t-152.5 -67.5q72 -12 102 -45.5t50 -105.5l57 -172l113 -8v-39q-63 -13 -109 -13q-63 0 -93.5 20t-41.5 68l-53 157q-20 64 -45 90.5t-81 26.5h-106 q0 -204 2 -302l115 -8v-39h-343zM384 389h120q81 0 125.5 45.5t44.5 115.5q0 77 -44.5 117.5t-132.5 40.5h-111q-2 -99 -2 -319z" />
<glyph unicode="&#xff33;" d="M226 49l9 159h63l24 -151q71 -32 162 -32q90 0 142.5 37t52.5 102q0 53 -33 87.5t-108 58.5l-94 28q-197 58 -197 215q0 103 79 158.5t204 55.5q124 0 218 -57l-6 -152h-62l-25 141q-56 26 -121 26q-82 0 -133.5 -35.5t-51.5 -100.5q0 -99 133 -140l100 -31 q111 -33 157.5 -87t46.5 -129q0 -104 -79.5 -162t-222.5 -58q-145 0 -258 67z" />
<glyph unicode="&#xff34;" d="M155 548l7 201h677l6 -201h-61l-25 160h-197q-2 -101 -2 -308v-50q0 -203 2 -303l125 -8v-39h-374v39l125 8q2 99 2 302v51q0 206 -2 308h-196l-25 -160h-62z" />
<glyph unicode="&#xff35;" d="M98 710v39h338v-39l-110 -8q-1 -98 -1 -298v-102q0 -135 54 -194.5t159 -59.5q111 0 164 63.5t53 204.5v386l-104 8v39h249v-39l-98 -8v-389q0 -167 -76.5 -249.5t-217.5 -82.5q-146 0 -225 76t-79 249v98q0 199 -1 299z" />
<glyph unicode="&#xff36;" d="M109 710v39h340v-39l-114 -8l220 -593l221 591l-111 10v39h260v-39l-102 -10l-267 -705h-79l-272 708z" />
<glyph unicode="&#xff37;" d="M2 710v39h295v-39l-92 -7l137 -563l148 562l-99 8v39h301v-39l-99 -9l150 -563l133 562l-92 10v39h229v-39l-90 -10l-178 -705h-77l-165 597l-161 -597h-74l-193 709z" />
<glyph unicode="&#xff38;" d="M111 0v39l108 8l235 307l-235 349l-89 7v39h312v-39l-96 -8l179 -266l191 265l-105 9v39h261v-39l-98 -9l-226 -299l240 -355l101 -8v-39h-319v39l92 7l-184 273l-200 -273l104 -7v-39h-271z" />
<glyph unicode="&#xff39;" d="M126 710v39h346v-39l-111 -8l188 -347l189 345l-108 10v39h267v-39l-109 -10l-223 -399v-34q0 -142 2 -220l125 -8v-39h-374v39l125 8q2 78 2 220v31l-224 405z" />
<glyph unicode="&#xff3a;" d="M190 0v33l482 675h-381l-33 -160h-56l9 201h597v-33l-482 -675h403l34 159h57l-10 -200h-620z" />
<glyph unicode="&#xff41;" d="M234 122q0 66 54 111.5t189 74.5q79 17 143 29v37q0 83 -30.5 113t-108.5 30q-49 0 -100 -16l-14 -54q-15 -73 -64 -73q-43 0 -54 39q14 66 83.5 104t180.5 38q119 0 172.5 -46t53.5 -151v-252q0 -38 9 -52t29 -14q17 0 43 23l20 -16q-34 -65 -109 -65q-91 0 -108 90 q-96 -90 -220 -90q-78 0 -123.5 36.5t-45.5 103.5zM344 143q0 -46 31 -71.5t85 -25.5q81 0 160 60v202q-8 -2 -121 -30q-81 -22 -118 -53t-37 -82z" />
<glyph unicode="&#xff42;" d="M159 0v35l100 9q2 116 2 193v510l-101 7v31l205 32l17 -10l-4 -159v-182q76 89 192 89q107 0 177 -75.5t70 -207.5q0 -135 -73.5 -212.5t-185.5 -77.5q-110 0 -180 82l-11 -72zM380 98q61 -55 140 -55q76 0 123 60.5t47 165.5q0 109 -46 167t-123 58q-74 0 -141 -61v-335 z" />
<glyph unicode="&#xff43;" d="M229 269q0 131 87.5 208.5t228.5 77.5q87 0 148.5 -39t78.5 -104q-15 -43 -54 -43q-51 0 -63 72l-14 67q-32 10 -81 10q-87 0 -145 -62t-58 -172q0 -105 61 -169t153 -64q106 0 177 71l24 -21q-82 -119 -246 -119q-132 0 -214.5 78t-82.5 209z" />
<glyph unicode="&#xff44;" d="M187 265q0 133 75 211.5t186 78.5q109 0 177 -83v275l-101 7v31l206 32l16 -10l-3 -156v-608l101 -8v-35l-214 -8l-5 76q-76 -86 -193 -86q-106 0 -175.5 75t-69.5 208zM314 268q0 -109 45.5 -167t122.5 -58q76 0 142 63v331q-60 57 -137 57q-78 0 -125.5 -60.5 t-47.5 -165.5z" />
<glyph unicode="&#xff45;" d="M226 271q0 131 88.5 207.5t212.5 76.5q119 0 184.5 -64.5t65.5 -161.5q0 -33 -6 -60h-417q4 -104 66 -161t146 -57q107 0 173 66l24 -21q-35 -55 -97.5 -84.5t-140.5 -29.5q-129 0 -214 76t-85 213zM355 308h263q26 0 35.5 13.5t9.5 49.5q0 67 -38 107t-102 40 q-72 0 -117.5 -54.5t-50.5 -155.5z" />
<glyph unicode="&#xff46;" d="M299 492v36l112 9q8 93 35.5 151.5t79.5 97.5q70 53 188 53q103 0 119 -56q0 -25 -15.5 -40t-41.5 -15q-41 0 -89 54l-21 23q-41 -13 -74 -46t-47 -82.5t-16 -140.5h191v-52l-191 7v-254q0 -65 2 -193l126 -9v-35h-341v35l92 9q2 128 2 193v255h-111z" />
<glyph unicode="&#xff47;" d="M226 -107q0 75 89 115q-56 32 -56 96q0 68 83 122q-80 50 -80 147q0 80 59 131t167 51q104 0 163 -48l144 45l17 -12v-69l-133 9q35 -46 35 -107q0 -81 -59 -132t-167 -51q-71 0 -120 23q-33 -34 -33 -62q0 -61 103 -61h165q208 0 208 -139q0 -84 -84.5 -139.5 t-238.5 -55.5q-132 0 -197 38.5t-65 98.5zM302 -85q0 -114 202 -114q103 0 157 31.5t54 83.5q0 66 -97 66h-178q-57 0 -97 14q-41 -39 -41 -81zM371 373q0 -67 31.5 -107.5t85.5 -40.5q53 0 85 40.5t32 107.5t-32 107t-85 40t-85 -40t-32 -107z" />
<glyph unicode="&#xff48;" d="M147 754v31l206 32l16 -10l-3 -159v-203q58 62 112 86t118 24q80 0 125.5 -47t45.5 -148v-123q0 -80 2 -194l85 -8v-35h-291v35l82 8q2 114 2 194v112q0 73 -25 104t-81 31q-87 0 -173 -74v-173q0 -137 1 -194l84 -8v-35h-292v35l85 8q2 116 2 194v510z" />
<glyph unicode="&#xff49;" d="M376 0v35l105 9q2 116 2 193v62q0 91 -3 174l-98 4v31l210 42l13 -8l-2 -149v-156q0 -77 2 -193l105 -9v-35h-334zM463 756q0 30 22.5 50.5t53.5 20.5q32 0 53.5 -20t21.5 -51t-21.5 -52t-53.5 -21q-31 0 -53.5 21t-22.5 52z" />
<glyph unicode="&#xff4a;" d="M182 -126q13 46 60 46q50 0 62 -91l11 -55q21 -7 45 -7q88 0 135 83q31 55 31 225v224q0 74 -4 174l-98 4v31l210 42l14 -8l-3 -149v-270q0 -130 -13.5 -196t-50.5 -111q-71 -86 -205 -86q-79 0 -136.5 43.5t-57.5 100.5zM506 756q0 30 22 50.5t52 20.5q32 0 54 -20 t22 -51t-22 -52t-54 -21q-30 0 -52 21t-22 52z" />
<glyph unicode="&#xff4b;" d="M171 754v31l207 32l17 -10l-3 -159v-392l251 238l-101 8v34h273v-34l-115 -8l-150 -139l201 -312l99 -8v-35h-195l-180 286l-83 -76q0 -117 1 -167l84 -8v-35h-295v35l88 8q2 116 2 194v510z" />
<glyph unicode="&#xff4c;" d="M339 754v31l208 32l16 -10l-3 -159v-411q0 -97 3 -194l90 -8v-35h-306v35l90 8q3 98 3 194v510z" />
<glyph unicode="&#xff4d;" d="M26 477v29l183 44l13 -8l4 -92q76 105 180 105q117 0 149 -106q45 57 89 81.5t96 24.5q164 0 164 -195v-123q0 -79 2 -195l80 -7v-35h-282v35l78 8q2 114 2 194v117q0 130 -94 130q-64 0 -127 -69q3 -23 3 -48v-130q0 -80 2 -194l77 -8v-35h-278v35l77 8q2 114 2 194v122 q0 125 -94 125q-65 0 -125 -68v-179q0 -79 2 -195l79 -7v-35h-277v35l75 7q2 116 2 195v70q0 99 -4 166z" />
<glyph unicode="&#xff4e;" d="M161 0v35l85 8q2 118 2 194v70q0 89 -3 166l-81 4v29l185 44l13 -8l5 -96q58 62 112 85.5t117 23.5q80 0 125.5 -47t45.5 -148v-123q0 -80 2 -194l85 -8v-35h-291v35l82 8q2 114 2 194v112q0 73 -25 104t-81 31q-87 0 -173 -74v-173q0 -136 1 -194l84 -8v-35h-292z" />
<glyph unicode="&#xff4f;" d="M202 270q0 131 86 208t212 77t212 -77t86 -208q0 -133 -83 -210.5t-215 -77.5t-215 77.5t-83 210.5zM330 268q0 -121 45 -185t125 -64t125 64t45 185t-45 185.5t-125 64.5t-125 -64.5t-45 -185.5z" />
<glyph unicode="&#xff50;" d="M155 -224l100 8q2 63 2 204v319q0 91 -3 166l-90 4v29l193 44l14 -7l4 -77q76 89 192 89q106 0 176.5 -76t70.5 -207q0 -135 -74 -212.5t-186 -77.5q-108 0 -179 81v-75q0 -77 2 -203l122 -9v-36h-344v36zM377 98q61 -55 139 -55q76 0 123 60.5t47 165.5q0 109 -45.5 167 t-122.5 58q-72 0 -141 -60v-336z" />
<glyph unicode="&#xff51;" d="M193 266q0 132 77.5 210.5t192.5 78.5q113 0 183 -83l85 77l22 -7l-3 -151v-414q0 -65 2 -193l100 -8v-36h-338v36l115 9q3 96 3 192v92q-76 -87 -193 -87q-106 0 -176 76t-70 208zM320 270q0 -110 46 -168.5t123 -58.5q76 0 141 62v343q-56 46 -132 46 q-79 0 -128.5 -60.5t-49.5 -163.5z" />
<glyph unicode="&#xff52;" d="M278 0v35l105 10q2 114 2 192v70q0 119 -3 166l-96 4v32l200 41l13 -8l4 -136q34 68 89.5 108.5t109.5 40.5q78 0 102 -49q0 -31 -19 -51t-51 -20q-43 0 -85 33l-23 18q-67 -34 -122 -125v-124q0 -105 3 -192l130 -10v-35h-359z" />
<glyph unicode="&#xff53;" d="M250 36l4 135h60l30 -129q60 -23 140 -23q73 0 114 26t41 71q0 35 -26 59.5t-94 40.5l-104 25q-153 38 -153 155q0 73 63 116t184 43q94 0 202 -46l-9 -119h-61l-27 110q-51 18 -111 18q-66 0 -103 -24t-37 -63q0 -35 25 -58t90 -39l111 -25q83 -20 119.5 -59t36.5 -99 q0 -78 -69 -123.5t-198 -45.5q-121 0 -228 54z" />
<glyph unicode="&#xff54;" d="M245 492v36l114 9l41 166h78l-3 -167h197v-52l-197 6v-312q0 -71 25.5 -103t77.5 -32q63 0 131 39l16 -25q-73 -75 -183 -75q-99 0 -143.5 47t-43.5 140q0 12 0.5 39t0.5 48v236h-111z" />
<glyph unicode="&#xff55;" d="M147 492v33l197 19l13 -10l-4 -160v-181q0 -72 30.5 -103.5t90.5 -31.5q83 0 158 73v355l-88 6v32l198 20l14 -10l-4 -160v-332l89 -7v-35l-208 -9l-1 104q-94 -113 -209 -113q-95 0 -143.5 50.5t-47.5 170.5l3 283z" />
<glyph unicode="&#xff56;" d="M153 502v34h311v-34l-92 -9l170 -394l172 395l-95 8v34h233v-34l-89 -8l-231 -499h-63l-228 499z" />
<glyph unicode="&#xff57;" d="M25 502v34h297v-34l-88 -7l126 -366l131 364l-95 9v34h280v-34l-87 -8l130 -365l129 363l-93 10v34h220v-34l-83 -9l-181 -498h-57l-153 412l-149 -412h-57l-189 500z" />
<glyph unicode="&#xff58;" d="M166 0v35l102 9l182 203l-185 247l-83 8l-1 34h299v-34l-73 -8l125 -162l131 160l-73 10l-1 34h230l1 -34l-103 -10l-164 -187l202 -263l84 -7v-35h-307v35l75 7l-136 176l-148 -175l80 -8v-35h-237z" />
<glyph unicode="&#xff59;" d="M155 502v34h315v-34l-91 -11l173 -405l177 406l-96 10v34h237v-34l-93 -9l-255 -562q-48 -104 -107 -151t-138 -47q-47 0 -78 17t-34 46q15 37 55 37q39 0 76 -26l44 -28q49 19 82.5 56.5t64.5 106.5l8 17l-245 532z" />
<glyph unicode="&#xff5a;" d="M241 0v32l383 469h-285l-31 -128l-62 4l8 159h509v-32l-377 -468h294l34 140h60l-9 -176h-524z" />
</font>
</defs>
</svg>
