<?xml version="1.0" standalone="no"?>
<!DOCTYPE svg PUBLIC "-//W3C//DTD SVG 1.1//EN" "http://www.w3.org/Graphics/SVG/1.1/DTD/svg11.dtd" >
<svg xmlns="http://www.w3.org/2000/svg" xmlns:xlink="http://www.w3.org/1999/xlink" version="1.1">
<metadata></metadata>
<defs>
<font id="noto_serif_scblack" horiz-adv-x="1000" vert-adv-y="1000" >
<font-face units-per-em="1000" ascent="800" descent="-200" />
<missing-glyph horiz-adv-x="500" />
<glyph unicode="&#x2000;" horiz-adv-x="428" vert-adv-y="0" />
<glyph unicode="&#x2001;" horiz-adv-x="856" vert-adv-y="0" />
<glyph unicode="&#x2002;" horiz-adv-x="428" vert-adv-y="0" />
<glyph unicode="&#x2003;" horiz-adv-x="856" vert-adv-y="0" />
<glyph unicode="&#x2004;" horiz-adv-x="285" vert-adv-y="0" />
<glyph unicode="&#x2005;" horiz-adv-x="214" vert-adv-y="0" />
<glyph unicode="&#x2006;" horiz-adv-x="142" vert-adv-y="0" />
<glyph unicode="&#x2007;" horiz-adv-x="142" vert-adv-y="0" />
<glyph unicode="&#x2008;" horiz-adv-x="107" vert-adv-y="0" />
<glyph unicode="&#x2009;" horiz-adv-x="171" vert-adv-y="0" />
<glyph unicode="&#x200a;" horiz-adv-x="47" vert-adv-y="0" />
<glyph unicode="&#x202f;" horiz-adv-x="171" vert-adv-y="0" />
<glyph unicode="&#x205f;" horiz-adv-x="214" vert-adv-y="0" />
<glyph unicode="&#xff21;" d="M98 0v37l99 10l247 705h118l259 -709l90 -6v-37h-371v37l97 8l-64 185h-264l-60 -182l106 -11v-37h-257zM323 274h235l-121 347z" />
<glyph unicode="&#xff22;" d="M165 0v37l95 6q2 103 2 313v37q0 211 -2 316l-95 6v37h396q265 0 265 -175q0 -67 -43 -110.5t-162 -62.5q138 -12 194.5 -60.5t56.5 -133.5q0 -32 -9 -60t-33 -56t-62 -48.5t-101 -33t-144 -12.5h-358zM436 373q0 -225 2 -334h85q78 0 125 49.5t47 123.5q0 82 -43 121.5 t-133 39.5h-83zM436 415h73q75 0 113.5 39.5t38.5 110.5q0 63 -36 105.5t-111 42.5h-76q-2 -98 -2 -298z" />
<glyph unicode="&#xff23;" d="M145 376q0 187 121 290t320 103q129 0 238 -60l-4 -198h-64l-57 199q-48 19 -106 19q-118 0 -191 -91.5t-73 -261.5q0 -171 73.5 -261.5t192.5 -90.5q57 0 115 22l57 195h64l4 -187q-122 -72 -251 -72q-90 0 -168 24t-139.5 71t-96.5 124t-35 175z" />
<glyph unicode="&#xff24;" d="M144 0v37l95 6q2 102 2 312v43q0 208 -2 311l-95 6v37h349q176 0 279.5 -99t103.5 -274q0 -177 -106 -278t-285 -101h-341zM415 356q0 -213 2 -317h41q234 0 234 337q0 177 -59 257t-172 80h-44q-2 -103 -2 -315v-42z" />
<glyph unicode="&#xff25;" d="M181 0v37l93 6q3 102 3 312v43q0 207 -3 311l-93 6v37h628l4 -199h-74l-46 160h-240q-3 -99 -3 -305h197l22 99h55v-239h-55l-21 98h-198q0 -224 3 -327h266l46 159h75l-10 -198h-649z" />
<glyph unicode="&#xff26;" d="M188 0v37l93 6q3 102 3 312v43q0 208 -3 311l-93 6v37h636l8 -199h-78l-46 160h-248q-2 -99 -2 -305h193l23 99h55v-247h-55l-23 106h-193q0 -221 2 -322l104 -7v-37h-376z" />
<glyph unicode="&#xff27;" d="M140 377q0 182 113.5 287t311.5 105q142 0 241 -54l-5 -186h-65l-55 183q-41 16 -95 16q-115 0 -188 -93t-73 -258t71.5 -259t183.5 -94q42 0 78 9v71q0 117 -3 234l-107 8v37h357v-37l-75 -6q-2 -154 -2 -243v-49q-62 -37 -126.5 -51.5t-150.5 -14.5q-186 0 -298.5 105 t-112.5 290z" />
<glyph unicode="&#xff28;" d="M77 0v37l95 6q2 102 2 312v43q0 208 -2 311l-95 6v37h368v-37l-95 -6q-3 -100 -3 -303h306q0 202 -2 303l-95 6v37h367v-37l-95 -6q-2 -102 -2 -311v-43q0 -209 2 -312l95 -6v-37h-367v37l95 6q2 102 2 319h-306q0 -216 3 -319l95 -6v-37h-368z" />
<glyph unicode="&#xff29;" d="M318 0v37l93 7q2 101 2 311v43q0 207 -2 310l-93 7v37h364v-37l-93 -7q-2 -102 -2 -310v-42q0 -209 2 -312l93 -7v-37h-364z" />
<glyph unicode="&#xff2a;" d="M142 172q8 24 27.5 36t39.5 12q35 0 55 -19.5t29 -69.5l21 -104q16 -4 39 -4q83 0 129.5 56t46.5 149q0 168 -3 479l-127 8v37h410v-37l-105 -7q-2 -98 -2 -301v-76q0 -78 -10 -134q-12 -92 -88.5 -153.5t-212.5 -61.5q-118 0 -180.5 48.5t-68.5 141.5z" />
<glyph unicode="&#xff2b;" d="M117 0v37l95 6q2 102 2 312v43q0 208 -2 311l-95 6v37h350v-37l-78 -6q-2 -102 -2 -311v-55l327 363l-100 9v37h265v-37l-107 -10l-183 -199l263 -464l80 -5v-37h-358v37l82 5l-178 344l-91 -99q0 -154 2 -244l78 -6v-37h-350z" />
<glyph unicode="&#xff2c;" d="M177 0v37l95 6q3 102 3 312v43q0 208 -3 311l-95 6v37h379v-37l-105 -7q-2 -102 -2 -310v-42q0 -213 2 -317h279l63 197h61l-11 -236h-666z" />
<glyph unicode="&#xff2d;" d="M10 0v37l123 10l5 660l-109 8v37h277l211 -522l203 522h260v-37l-97 -6q-3 -102 -3 -311v-42q0 -210 3 -313l96 -6v-37h-372v37l95 6q4 204 4 312v235l-234 -590h-49l-240 601l-3 -554l119 -10v-37h-289z" />
<glyph unicode="&#xff2e;" d="M77 0v37l112 10v621l-31 40l-81 7v37h277l415 -526l-5 479l-155 10v37h316v-37l-111 -10v-707h-97l-483 613l4 -563l155 -11v-37h-316z" />
<glyph unicode="&#xff2f;" d="M114 375q0 186 109.5 290t276.5 104q168 0 277 -104t109 -290q0 -185 -109 -289t-277 -104t-277 104t-109 289zM298 375q0 -163 51 -257t151 -94t151 94t51 257t-51 258t-151 95t-151 -95t-51 -258z" />
<glyph unicode="&#xff30;" d="M172 0v37l95 6q3 102 3 312v43q0 206 -3 308l-95 9v37h352q177 0 256.5 -57t79.5 -168q0 -247 -343 -247h-73q0 -147 3 -236l113 -7v-37h-388zM444 322h71q88 0 132.5 53.5t44.5 152.5q0 89 -41 137t-123 48h-81q-3 -103 -3 -315v-76z" />
<glyph unicode="&#xff31;" d="M114 375q0 186 109.5 290t276.5 104q168 0 277 -104t109 -290q0 -159 -82.5 -259t-216.5 -126q6 -84 51 -120.5t109 -36.5q53 0 109 25l13 -34q-86 -47 -195 -47q-127 0 -201.5 57t-63.5 157q-133 26 -214 126t-81 258zM298 375q0 -163 51 -257t151 -94t151 94t51 257 t-51 258t-151 95t-151 -95t-51 -258z" />
<glyph unicode="&#xff32;" d="M147 0v37l95 6q2 102 2 312v43q0 208 -2 311l-95 6v37h392q132 0 204 -49.5t72 -139.5q0 -67 -53 -116t-168 -67q99 -13 139 -53.5t57 -123.5l37 -160l104 -6v-37q-84 -18 -134 -18q-74 0 -112 26t-50 90l-32 133q-13 61 -38 92t-74 31h-74q0 -209 3 -310l105 -7v-37 h-378zM417 396h74q77 0 114.5 44.5t37.5 109.5q0 73 -40.5 118t-113.5 45h-69q-3 -102 -3 -317z" />
<glyph unicode="&#xff33;" d="M212 48l15 175h76l41 -179q57 -20 129 -20q85 0 134 36t49 95q0 91 -125 129l-94 29q-210 65 -210 220q0 114 86.5 175t221.5 61q132 0 227 -54l-9 -167h-73l-45 162q-45 18 -95 18q-74 0 -123.5 -33t-49.5 -93q0 -51 31 -81.5t97 -51.5l100 -30q206 -64 206 -218 q0 -112 -84 -175.5t-244 -63.5q-143 0 -261 66z" />
<glyph unicode="&#xff34;" d="M142 534l4 218h709l4 -218h-75l-36 179h-159q-2 -103 -2 -315v-42q0 -209 2 -312l115 -7v-37h-408v37l115 7q2 102 2 311v43q0 210 -2 315h-158l-37 -179h-74z" />
<glyph unicode="&#xff35;" d="M91 715v37h369v-37l-97 -7q-2 -98 -2 -299v-101q0 -133 48 -189.5t146 -56.5q105 0 155 59.5t50 195.5v388l-99 10v37h244v-37l-98 -10v-376q0 -349 -299 -349q-155 0 -237.5 77t-82.5 261v91q0 199 -2 300z" />
<glyph unicode="&#xff36;" d="M110 715v37h379v-37l-107 -7l199 -563l207 560l-119 10v37h268v-37l-101 -9l-268 -708h-111l-266 712z" />
<glyph unicode="&#xff37;" d="M1 715v37h329v-37l-85 -6l118 -521l133 519l-96 8v37h327v-37l-92 -8l137 -519l114 517l-90 10v37h218v-37l-79 -10l-169 -707h-110l-153 554l-150 -554h-103l-196 713z" />
<glyph unicode="&#xff38;" d="M102 0v37l109 10l226 292l-239 370l-76 6v37h345v-37l-88 -7l162 -249l175 247l-103 9v37h263v-37l-97 -9l-215 -283l246 -379l88 -7v-37h-358v37l89 6l-168 259l-189 -256l103 -9v-37h-273z" />
<glyph unicode="&#xff39;" d="M125 715v37h392v-37l-115 -7l173 -336l172 333l-108 10v37h261v-37l-99 -9l-213 -396v-24q0 -158 2 -242l122 -7v-37h-422v37l123 7q2 83 2 241v16l-220 409z" />
<glyph unicode="&#xff3a;" d="M172 0v35l462 678h-326l-53 -179h-68l10 218h626v-36l-463 -677h348l55 179h68l-9 -218h-650z" />
<glyph unicode="&#xff41;" d="M216 127q0 69 58 119.5t202 82.5q6 2 114 26v47q0 77 -25.5 104.5t-97.5 27.5q-30 0 -57 -4l-11 -64q-16 -104 -91 -104q-59 0 -74 52q7 72 79.5 114t200.5 42q133 0 191 -49t58 -162v-262q0 -41 29 -41q19 0 41 29l23 -15q-39 -88 -135 -88q-106 0 -127 89 q-47 -46 -95 -67.5t-114 -21.5q-79 0 -124 38.5t-45 106.5zM374 161q0 -46 27.5 -72t70.5 -26q60 0 118 40v224q-69 -20 -75 -22q-71 -22 -106 -56t-35 -88z" />
<glyph unicode="&#xff42;" d="M158 0v32l86 6q2 118 2 202v501l-85 10v26l246 43l15 -10l-5 -161v-173q72 94 183 94q105 0 176 -77.5t71 -214.5q0 -138 -75 -217t-181 -79q-110 0 -174 88l-16 -79zM419 100q46 -44 104 -44q63 0 101 56t38 157q0 113 -36.5 170.5t-95.5 57.5q-60 0 -111 -49v-348z" />
<glyph unicode="&#xff43;" d="M211 276q0 135 91 214.5t245 79.5q97 0 161.5 -45t74.5 -115q-19 -56 -72 -56q-77 0 -83 105l-8 76q-21 3 -47 3q-79 0 -128.5 -61.5t-49.5 -177.5q0 -106 57.5 -169.5t139.5 -63.5q99 0 169 74l22 -15q-89 -143 -260 -143q-142 0 -227 80t-85 214z" />
<glyph unicode="&#xff44;" d="M167 274q0 138 75 217t180 79q110 0 175 -87v258l-85 10v26l246 43l14 -10l-4 -160v-613l88 -5v-32l-250 -9l-10 84q-71 -93 -186 -93q-103 0 -173 77t-70 215zM351 283q0 -112 36.5 -169.5t95.5 -57.5q58 0 111 48v350q-44 43 -104 43q-63 0 -101 -56.5t-38 -157.5z" />
<glyph unicode="&#xff45;" d="M210 277q0 137 93 215t226 78q128 0 196.5 -68t68.5 -174q0 -25 -5 -52h-395q5 -98 63.5 -154t136.5 -56q95 0 160 67l22 -15q-36 -64 -103.5 -100t-150.5 -36q-139 0 -225.5 79t-86.5 216zM394 313h179q34 0 46.5 17t12.5 64q0 69 -30.5 106t-77.5 37q-124 0 -130 -224z " />
<glyph unicode="&#xff46;" d="M267 507v35l112 10q22 168 129 240q74 51 195 51q126 0 144 -78q0 -33 -19 -53t-51 -20q-62 0 -106 81l-20 37q-30 -16 -52 -42q-26 -31 -37 -80t-13 -137h162v-43l-162 -1v-267q0 -68 2 -200l117 -8v-32h-379v32l85 8q2 66 2 200v267h-109z" />
<glyph unicode="&#xff47;" d="M213 -108q0 73 90 108q-62 35 -62 105q0 73 91 133q-87 49 -87 150q0 82 61.5 132t181.5 50q125 0 189 -56l129 58l18 -12v-92l-125 22q32 -42 32 -102q0 -82 -61.5 -133t-181.5 -51q-77 0 -132 22q-19 -26 -19 -50q0 -54 90 -54h163q239 0 239 -151q0 -92 -90 -151 t-254 -59q-144 0 -208 37.5t-64 93.5zM303 -77q0 -116 199 -116q100 0 150.5 29t50.5 81q0 24 -20 40t-64 16h-184q-62 0 -107 16q-25 -32 -25 -66zM399 388q0 -153 89 -153q42 0 65.5 40.5t23.5 112.5q0 71 -24 111t-65 40q-43 0 -66 -39.5t-23 -111.5z" />
<glyph unicode="&#xff48;" d="M143 751v26l246 43l15 -10l-5 -161v-189q54 63 102.5 86.5t109.5 23.5q81 0 130 -48.5t49 -143.5v-138q0 -86 2 -202l76 -6v-32h-324v32l71 6q2 116 2 202v133q0 61 -20 85t-69 24q-62 0 -126 -51v-191q0 -144 2 -203l71 -5v-32h-324v32l75 6q2 118 2 202v501z" />
<glyph unicode="&#xff49;" d="M369 0v32l95 7q2 116 2 201v84q0 74 -3 154l-82 8v23l250 60l11 -7l-3 -166v-156q0 -85 2 -201l96 -7v-32h-368zM451 763q0 39 28.5 66t71.5 27t71.5 -27t28.5 -66q0 -41 -28.5 -68t-71.5 -27t-71.5 27t-28.5 68z" />
<glyph unicode="&#xff4a;" d="M168 -96q21 65 86 65q67 0 77 -120l7 -72q4 -1 14 -1q79 0 125 90q25 50 25 210v248q0 93 -4 154l-81 8v23l249 60l12 -7l-3 -166v-289q0 -111 -15 -172.5t-59 -107.5q-76 -83 -224 -83q-87 0 -148 48.5t-61 111.5zM486 763q0 39 28.5 66t71.5 27t71.5 -27t28.5 -66 q0 -41 -28.5 -68t-71.5 -27t-71.5 27t-28.5 68z" />
<glyph unicode="&#xff4b;" d="M163 0v32l84 6q2 118 2 202v501l-85 10v26l248 43l15 -10l-5 -161v-379l250 241l-108 8v32h277v-32l-115 -8l-140 -132l213 -343l79 -4v-32h-237l-161 280l-58 -54q0 -134 2 -189l71 -5v-32h-332z" />
<glyph unicode="&#xff4c;" d="M327 0v32l83 6q3 101 3 202v501l-85 10v26l249 43l14 -10l-4 -161v-409q0 -102 3 -202l83 -6v-32h-346z" />
<glyph unicode="&#xff4d;" d="M13 486v19l223 64l11 -7l7 -97q41 58 82 81.5t92 23.5q55 0 94.5 -28t56.5 -82q44 62 86 86t98 24q73 0 117.5 -49t44.5 -142v-139q0 -86 2 -202l67 -6v-32h-307v32l63 6q2 116 2 202v135q0 59 -17 83t-55 24q-45 0 -94 -52q4 -20 4 -50v-140q0 -86 2 -202l62 -6v-32 h-302v32l62 6q2 116 2 202v136q0 59 -16.5 82.5t-54.5 23.5q-44 0 -90 -43v-199q0 -85 2 -203l63 -5v-32h-300v32l59 5q2 118 2 203v97q0 71 -3 141z" />
<glyph unicode="&#xff4e;" d="M151 0v32l75 6q2 118 2 202v97q0 71 -3 141l-65 8v19l223 64l12 -7l6 -100q53 62 101.5 85t108.5 23q81 0 130 -48.5t49 -143.5v-138q0 -86 2 -202l75 -6v-32h-323v32l71 6q2 116 2 202v133q0 61 -20 85t-69 24q-62 0 -126 -51v-191q0 -85 2 -203l71 -5v-32h-324z" />
<glyph unicode="&#xff4f;" d="M185 279q0 131 89 211t226 80t226 -80t89 -211q0 -133 -85.5 -215t-229.5 -82q-145 0 -230 82t-85 215zM369 276q0 -260 131 -260t131 260q0 261 -131 261t-131 -261z" />
<glyph unicode="&#xff50;" d="M144 -215l86 6q2 69 2 220v326q0 73 -3 141l-68 8v19l224 64l13 -8l5 -86q72 95 184 95q105 0 175.5 -77.5t70.5 -214.5t-75 -216.5t-180 -79.5q-109 0 -175 88v-59q0 -82 2 -218l107 -8v-31h-368v31zM406 100q46 -44 104 -44q63 0 101 56t38 157q0 113 -36.5 170.5 t-95.5 57.5q-58 0 -111 -48v-349z" />
<glyph unicode="&#xff51;" d="M176 274q0 139 78.5 217.5t191.5 78.5q107 0 174 -84l147 83l14 -8l-4 -156v-411q0 -102 3 -203l86 -6v-31h-368v31l105 7q3 101 3 202v83q-72 -95 -189 -95q-101 0 -171 78t-70 214zM360 283q0 -112 36.5 -169.5t95.5 -57.5q58 0 111 48v363q-44 30 -95 30 q-67 0 -107.5 -56.5t-40.5 -157.5z" />
<glyph unicode="&#xff52;" d="M258 0v31l95 7q2 118 2 202v97q0 100 -3 141l-83 8v19l239 64l12 -7l7 -138q33 67 85.5 106.5t100.5 39.5q86 0 116 -66q0 -41 -24 -69t-65 -28q-65 0 -98 47l-25 34q-44 -35 -89 -123v-125q0 -112 3 -201l123 -8v-31h-396z" />
<glyph unicode="&#xff53;" d="M248 35l13 158h67l56 -167q37 -11 85 -11q67 0 103.5 24.5t36.5 61.5q0 33 -23 54.5t-86 44.5l-94 33q-78 29 -115 69t-37 97q0 79 68 125t199 46q91 0 197 -46l-17 -139h-67l-48 145q-29 8 -71 8q-55 0 -87.5 -23t-32.5 -57q0 -35 22.5 -56.5t87.5 -43.5l95 -31 q83 -27 121 -66.5t38 -100.5q0 -84 -76.5 -131t-211.5 -47q-116 0 -223 53z" />
<glyph unicode="&#xff54;" d="M230 507v35l116 11l57 163h110l-1 -165h180v-43l-180 -1v-325q0 -73 23.5 -105t71.5 -32q58 0 129 47l16 -21q-31 -39 -83 -64t-116 -25q-114 0 -165 49.5t-51 151.5q0 13 1 42t1 53v229h-109z" />
<glyph unicode="&#xff55;" d="M144 503v28l230 31l13 -8l-4 -167v-198q0 -59 23.5 -83.5t72.5 -24.5q67 0 119 42v375l-68 5v28l230 31l14 -8l-3 -167v-351l76 -4v-32l-246 -16l-3 110q-89 -112 -205 -112q-189 0 -186 229l4 287z" />
<glyph unicode="&#xff56;" d="M144 519v32h348v-32l-87 -7l158 -377l164 376l-98 8v32h236v-32l-90 -8l-241 -513h-83l-234 516z" />
<glyph unicode="&#xff57;" d="M10 519v32h338v-32l-85 -5l116 -349l131 347l-101 7v32h298v-32l-83 -6l125 -350l122 347l-101 9v32h221v-32l-77 -7l-186 -514h-79l-148 377l-142 -377h-79l-202 516z" />
<glyph unicode="&#xff58;" d="M164 32l101 8l168 191l-195 280l-64 8l-1 32h343v-32l-72 -9l108 -149l113 144l-73 14l-1 32h234v-32l-106 -15l-147 -171l213 -297l63 -4l1 -32h-359l-1 32l81 5l-117 166l-132 -163l85 -8l1 -32h-242z" />
<glyph unicode="&#xff59;" d="M148 519v32h349v-32l-84 -13l158 -394l166 393l-101 14v32h238v-32l-89 -14l-251 -551q-48 -105 -109.5 -153.5t-144.5 -48.5q-55 0 -90.5 22t-36.5 59q22 49 70 49q46 0 91 -36l51 -40q71 34 122 130l-263 573z" />
<glyph unicode="&#xff5a;" d="M230 0v35l357 480h-224l-46 -145l-82 4l9 177h534v-35l-347 -480h229l55 158h74l-11 -194h-548z" />
</font>
</defs>
</svg>
